<svg width="24" height="24" viewBox="0 0 24 24" fill="none" xmlns="http://www.w3.org/2000/svg">
<g id="mingcute:arrow-right-up-line" clip-path="url(#clip0_551_1438)">
<g id="Group">
<path id="Vector" d="M18.0002 5C18.2654 5 18.5198 5.10536 18.7073 5.29289C18.8948 5.48043 19.0002 5.73478 19.0002 6V14C19.0002 14.2652 18.8948 14.5196 18.7073 14.7071C18.5198 14.8946 18.2654 15 18.0002 15C17.735 15 17.4806 14.8946 17.2931 14.7071C17.1055 14.5196 17.0002 14.2652 17.0002 14V8.414L7.05018 18.364C6.86158 18.5462 6.60898 18.647 6.34678 18.6447C6.08458 18.6424 5.83377 18.5372 5.64836 18.3518C5.46295 18.1664 5.35778 17.9156 5.35551 17.6534C5.35323 17.3912 5.45402 17.1386 5.63618 16.95L15.5862 7H10.0002C9.73496 7 9.48061 6.89464 9.29307 6.70711C9.10554 6.51957 9.00018 6.26522 9.00018 6C9.00018 5.73478 9.10554 5.48043 9.29307 5.29289C9.48061 5.10536 9.73496 5 10.0002 5H18.0002Z" fill="white"/>
</g>
</g>
<defs>
<clipPath id="clip0_551_1438">
<rect width="24" height="24" fill="white"/>
</clipPath>
</defs>
</svg>
