<svg width="24" height="24" viewBox="0 0 24 24" fill="none" xmlns="http://www.w3.org/2000/svg">
<path d="M22.9941 19.6579V20.4185C23.0997 20.4074 23.2066 20.4177 23.3078 20.4489C23.409 20.4801 23.5024 20.5314 23.582 20.5996C23.6616 20.6678 23.7257 20.7513 23.77 20.8449C23.8144 20.9384 23.8381 21.0399 23.8396 21.1429V22H15.8313V21.1413C15.833 21.0384 15.857 20.9369 15.9015 20.8434C15.946 20.75 16.0102 20.6665 16.09 20.5985C16.1697 20.5304 16.2633 20.4793 16.3646 20.4483C16.4659 20.4173 16.5728 20.4072 16.6784 20.4185V19.6579C16.6784 19.326 16.9166 19.0513 17.2358 18.9668L17.2203 12.3813C16.9742 9.76006 14.6666 7.70624 11.8591 7.70624C9.05158 7.70624 6.74392 9.76006 6.49789 12.3813L6.48232 18.9577C6.83734 19.0211 7.31071 19.2716 7.32317 19.6579V20.4185C7.42878 20.4074 7.53562 20.4177 7.63687 20.4489C7.73811 20.4801 7.83152 20.5314 7.91111 20.5996C7.9907 20.6678 8.05473 20.7513 8.09908 20.8449C8.14344 20.9384 8.16714 21.0399 8.16869 21.1429V22H0.160384V21.1413C0.162142 21.0385 0.186007 20.9372 0.230456 20.8438C0.274905 20.7505 0.33896 20.6671 0.418529 20.5991C0.498099 20.5311 0.591433 20.4799 0.69257 20.4488C0.793707 20.4177 0.900424 20.4074 1.0059 20.4185V19.6579C1.0059 19.2762 1.31889 18.9728 1.71284 18.9457V7.03169H0.949848L0 3.9668H4.11237V1H19.6058V3.9668H24L23.0502 7.03018H22.2872V18.9457C22.6796 18.9713 22.9941 19.2777 22.9941 19.6579Z" fill="white"/>
</svg>
